<?xml version="1.0" standalone="yes"?>
<svg xmlns="http://www.w3.org/2000/svg" width="80" height="80">
<path style="fill:#ffffff; stroke:none;" d="M0 0L0 80L80 80L80 0L0 0z"/>
<path style="fill:#000000; stroke:none;" d="M5 35C11.6767 36.9371 11.6766 43.0629 5 45C5 49.134 3.05018 60.158 6.60339 62.9722C9.8503 65.5438 18.0708 64 22 64L59 64C62.7313 64 70.3017 65.4234 73.3966 62.9722C76.9498 60.158 75 49.134 75 45C68.3234 43.0629 68.3233 36.9371 75 35C75 30.866 76.9498 19.842 73.3966 17.0278C70.3017 14.5766 62.7313 16 59 16L22 16C18.0708 16 9.8503 14.4562 6.60339 17.0278C3.05018 19.842 5 30.866 5 35z"/>
<path style="fill:#ffffff; stroke:none;" d="M7 32C15.727 35.0403 15.727 44.9597 7 48C7 51.7135 5.71463 58.5678 9.3179 60.9722C12.9176 63.3743 19.8965 61.9157 24 61.8611C34.9861 61.7149 46.0082 62 57 62C60.8429 62 67.332 63.2077 70.6821 60.9722C74.2854 58.5678 73 51.7135 73 48C64.273 44.9597 64.273 35.0403 73 32C73 28.2865 74.2854 21.4322 70.6821 19.0278C67.332 16.7923 60.8429 18 57 18C46.0082 18 34.9861 18.2851 24 18.1389C19.8965 18.0843 12.9176 16.6257 9.3179 19.0278C5.71463 21.4322 7 28.2865 7 32z"/>
<path style="fill:#000000; stroke:none;" d="M24 21L24 23L26 23L26 21L24 21M24 25L24 27L26 27L26 25L24 25M24 29L24 31L26 31L26 29L24 29M24 33L24 35L26 35L26 33L24 33M24 37L24 39L26 39L26 37L24 37M24 41L24 43L26 43L26 41L24 41M24 45L24 47L26 47L26 45L24 45M24 49L24 51L26 51L26 49L24 49M24 53L24 55L26 55L26 53L24 53M24 57L24 59L26 59L26 57L24 57z"/>
</svg>
