<svg id="svg" version="1.1" xmlns="http://www.w3.org/2000/svg" xmlns:xlink="http://www.w3.org/1999/xlink" width="400" height="400" viewBox="0, 0, 400,400"><g id="svgg"><path id="path0" d="M206.495 71.734 C 196.727 75.277,158.974 115.236,142.714 139.242 C 132.821 153.849,130.639 158.298,118.705 188.200 C 113.516 201.201,103.095 221.094,95.289 232.897 C 75.411 262.954,76.944 279.918,102.112 308.400 C 125.779 335.183,130.725 335.358,128.124 309.321 C 126.176 289.813,128.895 280.778,148.623 241.200 C 154.819 228.770,160.436 217.340,161.105 215.800 C 164.083 208.950,166.014 203.890,167.169 199.918 C 169.719 191.143,171.615 188.800,176.167 188.800 C 181.090 188.800,183.048 192.524,184.408 204.473 C 186.126 219.561,192.542 242.856,199.425 259.000 C 200.266 260.971,204.777 272.756,210.025 286.689 C 217.514 306.573,217.887 306.702,228.171 292.934 C 236.641 281.593,243.474 269.137,249.383 254.264 C 258.293 231.835,266.433 232.106,275.580 255.137 C 282.701 273.066,282.704 291.247,275.590 313.400 C 270.663 328.741,273.725 331.043,285.733 321.027 C 315.924 295.841,323.776 279.175,318.973 250.473 C 316.946 238.359,313.393 230.886,304.115 219.220 C 297.382 210.753,291.484 200.534,287.827 191.000 C 282.552 177.244,277.243 167.491,268.450 155.400 C 250.942 131.327,245.905 132.229,245.000 159.600 C 244.533 173.730,241.700 191.316,238.136 202.200 C 235.017 211.728,230.464 215.552,228.046 210.675 C 227.082 208.732,227.007 208.299,224.625 191.098 C 223.661 184.131,220.244 166.099,218.368 158.072 C 213.962 139.223,212.131 115.038,213.186 89.600 C 213.755 75.869,213.639 74.759,211.404 72.524 C 209.968 71.088,208.796 70.900,206.495 71.734 " stroke="none" fill="#f9faf9" fill-rule="evenodd"></path><path id="path1" d="M55.765 1.952 C 56.554 3.028,57.200 4.168,57.200 4.487 C 57.200 4.806,57.333 5.199,57.495 5.362 C 57.657 5.524,57.792 5.959,57.795 6.328 C 57.798 6.718,58.177 7.054,58.699 7.128 C 59.267 7.208,59.978 7.903,60.627 9.009 C 61.192 9.974,62.031 10.883,62.491 11.029 C 62.951 11.175,67.183 15.098,71.896 19.747 C 77.587 25.361,80.823 28.268,81.532 28.403 C 82.299 28.548,82.637 28.887,82.730 29.603 C 82.888 30.812,88.272 36.400,89.279 36.400 C 89.664 36.400,94.314 40.675,99.612 45.900 C 104.910 51.125,109.639 55.490,110.122 55.600 C 110.605 55.710,119.244 63.990,129.320 74.000 C 139.396 84.010,148.011 92.260,148.464 92.334 C 148.918 92.407,150.912 94.090,152.896 96.074 L 156.503 99.681 156.241 102.568 C 155.972 105.542,155.511 106.647,152.279 112.055 C 149.135 117.319,147.769 119.483,146.749 120.821 C 146.170 121.580,144.122 124.720,142.197 127.800 C 140.272 130.880,137.936 134.570,137.007 136.000 C 131.618 144.292,123.994 159.264,121.016 167.400 C 114.714 184.622,112.698 189.781,110.313 194.800 C 109.424 196.670,107.900 200.090,106.925 202.400 C 103.841 209.711,96.601 223.125,92.111 229.845 C 74.317 256.476,73.607 273.616,89.326 297.000 C 96.492 307.660,116.344 328.587,122.111 331.561 C 125.480 333.299,127.171 333.237,129.209 331.300 C 131.893 328.749,132.078 327.325,131.771 311.600 C 131.282 286.544,133.319 280.172,154.407 240.800 C 161.858 226.888,168.538 213.041,171.581 205.200 C 173.905 199.210,174.145 198.724,175.063 198.122 C 176.837 196.960,177.636 198.941,178.804 207.400 C 179.720 214.027,180.447 217.381,182.839 226.000 C 187.616 243.211,189.433 248.427,198.305 270.400 C 200.304 275.350,204.115 285.070,206.776 292.000 C 212.800 307.693,213.903 309.364,218.193 309.300 C 225.204 309.194,243.538 283.258,255.022 257.200 C 260.965 243.713,262.412 243.257,267.361 253.313 C 276.750 272.388,277.241 289.214,269.172 315.381 C 264.818 329.501,269.204 337.121,279.000 332.456 C 287.570 328.375,310.866 307.051,319.265 295.600 C 322.736 290.867,327.047 282.352,327.794 278.753 C 327.948 278.009,328.571 276.320,329.179 275.000 C 329.786 273.680,330.407 272.086,330.559 271.458 C 330.716 270.811,331.175 270.227,331.618 270.111 C 332.048 269.999,332.400 269.568,332.400 269.153 C 332.400 267.705,333.448 268.435,338.181 273.181 C 341.401 276.409,343.282 278.000,343.974 278.081 C 344.726 278.168,345.035 278.467,345.130 279.200 C 345.288 280.412,350.670 286.000,351.680 286.000 C 352.065 286.000,357.433 290.995,363.608 297.100 C 369.784 303.205,375.217 308.261,375.683 308.336 C 376.698 308.500,390.400 322.235,390.400 323.089 C 390.400 323.460,390.631 323.597,391.012 323.451 C 391.413 323.297,391.783 323.563,392.082 324.221 C 392.334 324.774,392.824 325.200,393.170 325.167 C 394.678 325.025,395.200 325.261,395.433 326.190 C 395.617 326.922,396.035 327.245,397.041 327.434 C 397.788 327.574,398.400 327.849,398.400 328.045 C 398.400 328.240,398.760 328.400,399.200 328.400 C 400.289 328.400,400.488 197.873,399.400 197.455 C 399.049 197.321,398.800 196.721,398.800 196.013 C 398.800 195.017,398.637 194.800,397.889 194.800 C 397.388 194.800,396.670 194.440,396.293 194.000 C 395.916 193.560,395.336 193.200,395.004 193.200 C 394.672 193.200,394.400 192.911,394.400 192.557 C 394.400 192.177,394.176 192.000,393.852 192.125 C 393.093 192.416,390.800 190.952,390.800 190.176 C 390.800 189.827,389.771 188.609,388.514 187.471 C 387.256 186.332,383.301 182.475,379.725 178.900 C 376.149 175.325,372.903 172.397,372.511 172.394 C 372.119 172.390,366.012 166.655,358.881 159.594 C 351.775 152.557,345.655 146.798,345.281 146.795 C 344.906 146.792,336.266 138.512,326.079 128.395 C 315.614 118.000,307.250 110.000,306.849 110.000 C 306.448 110.000,298.442 102.344,288.445 92.400 C 278.166 82.175,270.448 74.800,270.026 74.800 C 269.617 74.800,265.445 70.972,260.436 66.000 C 255.327 60.929,251.259 57.200,250.835 57.200 C 249.914 57.200,249.318 56.496,249.138 55.200 C 249.040 54.486,248.714 54.160,248.000 54.062 C 246.685 53.880,246.000 53.283,246.000 52.320 C 246.000 51.321,243.896 49.200,242.906 49.200 C 242.453 49.200,237.946 45.032,231.661 38.800 C 225.893 33.080,220.855 28.400,220.466 28.400 C 219.546 28.400,218.800 27.634,218.800 26.689 C 218.800 25.717,216.682 23.600,215.709 23.600 C 214.766 23.600,212.400 21.205,212.400 20.250 C 212.400 19.315,210.266 17.200,209.321 17.200 C 208.914 17.200,207.017 15.670,205.104 13.800 C 203.191 11.930,201.445 10.400,201.223 10.400 C 201.000 10.400,200.499 9.905,200.109 9.300 C 199.719 8.695,198.827 7.621,198.126 6.913 C 197.234 6.011,196.772 5.084,196.581 3.813 C 196.348 2.262,196.175 2.000,195.382 2.000 C 194.726 2.000,194.418 1.738,194.328 1.100 L 194.200 0.200 124.265 0.099 L 54.330 -0.002 55.765 1.952 M213.615 66.500 C 217.581 68.500,218.764 74.544,217.706 87.400 C 216.788 98.557,216.615 118.867,217.367 127.200 C 218.138 135.740,220.544 153.479,221.409 157.000 C 222.297 160.618,225.426 177.075,226.390 183.200 C 226.858 186.170,227.749 191.840,228.370 195.800 C 229.974 206.015,230.959 207.803,233.276 204.700 C 237.557 198.967,240.881 180.481,241.602 158.400 C 242.267 138.051,244.323 132.991,251.642 133.694 C 257.710 134.277,269.462 147.588,279.990 165.800 C 285.845 175.929,287.314 179.026,291.274 189.600 C 295.042 199.660,299.803 207.923,307.710 218.124 C 318.355 231.856,322.008 241.251,323.157 257.852 C 324.736 280.665,319.234 292.970,298.764 312.415 C 280.861 329.422,275.501 332.665,271.756 328.753 C 269.743 326.650,270.071 322.454,272.958 313.400 C 280.900 288.487,280.110 269.791,270.279 250.020 C 264.152 237.700,258.994 238.182,253.360 251.600 C 246.918 266.943,244.225 272.541,239.588 280.221 C 234.190 289.164,225.769 300.708,222.471 303.688 C 217.985 307.741,215.097 306.121,211.862 297.737 C 202.927 274.578,198.075 262.049,196.009 256.800 C 192.680 248.341,189.585 239.092,187.442 231.200 C 183.567 216.928,182.754 213.044,181.793 204.200 C 180.775 194.823,179.390 192.000,175.811 192.000 C 173.119 192.000,171.799 193.810,169.627 200.479 C 167.103 208.226,162.113 219.745,156.925 229.800 C 130.934 280.169,128.079 288.589,129.806 309.777 C 132.153 338.572,125.329 338.084,99.401 307.600 C 74.923 278.820,73.795 261.354,94.427 230.581 C 98.229 224.910,105.020 212.773,108.068 206.200 C 113.785 193.874,116.550 187.572,118.602 182.200 C 127.231 159.605,130.633 152.674,140.067 138.470 C 152.709 119.437,167.470 102.038,188.654 81.200 C 203.977 66.128,208.083 63.710,213.615 66.500 " stroke="none" fill="#63a7ef" fill-rule="evenodd"></path><path id="path2" d="M194.302 1.000 C 194.439 1.717,194.750 2.000,195.401 2.000 C 196.172 2.000,196.350 2.275,196.581 3.813 C 196.772 5.084,197.234 6.011,198.126 6.913 C 198.827 7.621,199.719 8.695,200.109 9.300 C 200.499 9.905,201.000 10.400,201.223 10.400 C 201.445 10.400,203.191 11.930,205.104 13.800 C 207.017 15.670,208.914 17.200,209.321 17.200 C 210.285 17.200,212.400 19.323,212.400 20.291 C 212.400 21.234,214.795 23.600,215.750 23.600 C 216.690 23.600,218.800 25.737,218.800 26.689 C 218.800 27.634,219.546 28.400,220.466 28.400 C 220.855 28.400,225.893 33.080,231.661 38.800 C 237.946 45.032,242.453 49.200,242.906 49.200 C 243.896 49.200,246.000 51.321,246.000 52.320 C 246.000 53.283,246.685 53.880,248.000 54.062 C 248.714 54.160,249.040 54.486,249.138 55.200 C 249.318 56.496,249.914 57.200,250.835 57.200 C 251.259 57.200,255.327 60.929,260.436 66.000 C 265.445 70.972,269.617 74.800,270.026 74.800 C 270.448 74.800,278.166 82.175,288.445 92.400 C 298.442 102.344,306.448 110.000,306.849 110.000 C 307.250 110.000,315.614 118.000,326.079 128.395 C 336.266 138.512,344.906 146.792,345.281 146.795 C 345.655 146.798,351.775 152.557,358.881 159.594 C 366.012 166.655,372.119 172.390,372.511 172.394 C 372.903 172.397,376.149 175.325,379.725 178.900 C 383.301 182.475,387.256 186.332,388.514 187.471 C 389.771 188.609,390.800 189.827,390.800 190.176 C 390.800 190.952,393.093 192.416,393.852 192.125 C 394.176 192.000,394.400 192.177,394.400 192.557 C 394.400 192.911,394.672 193.200,395.004 193.200 C 395.336 193.200,395.916 193.560,396.293 194.000 C 396.670 194.440,397.376 194.800,397.864 194.800 C 398.565 194.800,398.775 195.063,398.875 196.069 C 398.944 196.767,399.225 197.412,399.500 197.503 C 399.899 197.634,400.000 177.721,400.000 98.833 L 400.000 0.000 297.055 -0.000 L 194.111 -0.000 194.302 1.000 M206.257 66.397 C 203.064 67.643,198.735 71.285,188.654 81.200 C 167.470 102.038,152.709 119.437,140.067 138.470 C 130.633 152.674,127.231 159.605,118.602 182.200 C 116.550 187.572,113.785 193.874,108.068 206.200 C 105.020 212.773,98.229 224.910,94.427 230.581 C 73.795 261.354,74.923 278.820,99.401 307.600 C 125.329 338.084,132.153 338.572,129.806 309.777 C 128.079 288.589,130.934 280.169,156.925 229.800 C 162.113 219.745,167.103 208.226,169.627 200.479 C 171.799 193.810,173.119 192.000,175.811 192.000 C 179.390 192.000,180.775 194.823,181.793 204.200 C 182.754 213.044,183.567 216.928,187.442 231.200 C 189.585 239.092,192.680 248.341,196.009 256.800 C 198.075 262.049,202.927 274.578,211.862 297.737 C 215.097 306.121,217.985 307.741,222.471 303.688 C 225.769 300.708,234.190 289.164,239.588 280.221 C 244.225 272.541,246.918 266.943,253.360 251.600 C 258.994 238.182,264.152 237.700,270.279 250.020 C 280.110 269.791,280.900 288.487,272.958 313.400 C 270.071 322.454,269.743 326.650,271.756 328.753 C 275.501 332.665,280.861 329.422,298.764 312.415 C 319.234 292.970,324.736 280.665,323.157 257.852 C 322.008 241.251,318.355 231.856,307.710 218.124 C 299.803 207.923,295.042 199.660,291.274 189.600 C 285.648 174.577,279.089 162.616,269.485 149.861 C 258.376 135.107,251.389 130.698,246.258 135.203 C 243.136 137.943,242.102 143.098,241.602 158.400 C 240.881 180.481,237.557 198.967,233.276 204.700 C 230.959 207.803,229.974 206.015,228.370 195.800 C 227.749 191.840,226.858 186.170,226.390 183.200 C 225.426 177.075,222.297 160.618,221.409 157.000 C 220.544 153.479,218.138 135.740,217.367 127.200 C 216.615 118.867,216.788 98.557,217.706 87.400 C 219.180 69.494,215.519 62.779,206.257 66.397 M211.404 72.524 C 213.639 74.759,213.755 75.869,213.186 89.600 C 212.131 115.038,213.962 139.223,218.368 158.072 C 220.244 166.099,223.661 184.131,224.625 191.098 C 227.007 208.299,227.082 208.732,228.046 210.675 C 233.717 222.112,243.953 191.274,245.000 159.600 C 245.905 132.229,250.942 131.327,268.450 155.400 C 277.243 167.491,282.552 177.244,287.827 191.000 C 291.484 200.534,297.382 210.753,304.115 219.220 C 313.393 230.886,316.946 238.359,318.973 250.473 C 323.776 279.175,315.924 295.841,285.733 321.027 C 273.725 331.043,270.663 328.741,275.590 313.400 C 282.704 291.247,282.701 273.066,275.580 255.137 C 266.433 232.106,258.293 231.835,249.383 254.264 C 243.474 269.137,236.641 281.593,228.171 292.934 C 217.887 306.702,217.514 306.573,210.025 286.689 C 204.777 272.756,200.266 260.971,199.425 259.000 C 192.542 242.856,186.126 219.561,184.408 204.473 C 183.048 192.524,181.090 188.800,176.167 188.800 C 171.615 188.800,169.719 191.143,167.169 199.918 C 166.014 203.890,164.083 208.950,161.105 215.800 C 160.436 217.340,154.819 228.770,148.623 241.200 C 128.895 280.778,126.176 289.813,128.124 309.321 C 130.725 335.358,125.779 335.183,102.112 308.400 C 76.944 279.918,75.411 262.954,95.289 232.897 C 103.095 221.094,113.516 201.201,118.705 188.200 C 130.639 158.298,132.821 153.849,142.714 139.242 C 157.418 117.532,185.959 86.518,202.695 74.064 C 207.012 70.852,209.323 70.443,211.404 72.524 " stroke="none" fill="#77d0f4" fill-rule="evenodd"></path><path id="path3" d="M0.004 92.500 C 0.007 143.375,0.121 185.678,0.258 186.506 C 0.518 188.079,0.918 188.336,3.380 188.515 C 4.030 188.562,4.885 188.915,5.280 189.300 C 5.676 189.685,6.294 190.000,6.654 190.000 C 8.511 190.000,10.400 190.939,10.400 191.863 C 10.400 192.378,10.582 192.800,10.805 192.800 C 11.028 192.800,14.533 196.130,18.595 200.200 C 22.798 204.412,26.295 207.600,26.711 207.600 C 27.670 207.600,29.999 210.019,30.004 211.019 C 30.006 211.449,30.724 212.430,31.600 213.200 C 32.578 214.060,33.194 214.953,33.196 215.514 C 33.203 217.203,38.463 222.000,40.308 222.000 C 41.996 222.000,44.400 223.968,44.400 225.350 C 44.400 226.337,46.557 228.400,47.588 228.400 C 48.808 228.400,52.305 232.018,52.469 233.450 C 52.580 234.425,52.812 234.630,54.000 234.800 C 55.188 234.970,55.420 235.175,55.531 236.150 C 55.701 237.635,59.191 241.198,60.481 241.204 C 61.048 241.206,61.936 241.817,62.800 242.800 C 63.572 243.678,64.568 244.394,65.022 244.396 C 66.053 244.401,68.399 246.775,68.404 247.819 C 68.406 248.249,69.124 249.230,70.000 250.000 C 70.876 250.770,71.594 251.625,71.596 251.900 C 71.598 252.175,71.948 252.400,72.373 252.400 C 72.827 252.400,73.259 252.771,73.419 253.300 C 73.569 253.795,74.076 254.634,74.546 255.164 C 75.256 255.965,75.282 256.086,74.700 255.877 C 74.315 255.738,74.000 255.799,74.000 256.013 C 74.000 256.226,74.405 256.403,74.900 256.406 C 75.628 256.411,75.685 256.486,75.200 256.800 C 74.764 257.082,74.743 257.189,75.124 257.194 C 75.412 257.197,75.525 257.398,75.375 257.640 C 75.178 257.959,75.330 257.959,75.927 257.639 C 76.536 257.313,76.826 257.319,77.038 257.661 C 77.227 257.967,77.147 258.014,76.800 257.800 C 76.451 257.584,76.373 257.633,76.566 257.945 C 76.725 258.202,77.026 258.308,77.234 258.179 C 77.443 258.050,77.491 257.747,77.341 257.504 C 77.172 257.232,77.295 257.151,77.662 257.292 C 78.076 257.451,78.247 257.261,78.227 256.660 C 78.212 256.187,78.412 255.841,78.670 255.890 C 78.935 255.941,79.615 254.542,80.226 252.690 C 82.389 246.130,86.467 238.292,92.111 229.845 C 96.601 223.125,103.841 209.711,106.925 202.400 C 107.900 200.090,109.424 196.670,110.313 194.800 C 112.698 189.781,114.714 184.622,121.016 167.400 C 123.994 159.264,131.618 144.292,137.007 136.000 C 137.936 134.570,140.272 130.880,142.197 127.800 C 144.122 124.720,146.170 121.580,146.749 120.821 C 147.769 119.483,149.135 117.319,152.279 112.055 C 155.511 106.647,155.972 105.542,156.241 102.568 L 156.503 99.681 152.896 96.074 C 150.912 94.090,148.918 92.407,148.464 92.334 C 148.011 92.260,139.396 84.010,129.320 74.000 C 119.244 63.990,110.605 55.710,110.122 55.600 C 109.639 55.490,104.910 51.125,99.612 45.900 C 94.314 40.675,89.664 36.400,89.279 36.400 C 88.272 36.400,82.888 30.812,82.730 29.603 C 82.637 28.887,82.299 28.548,81.532 28.403 C 80.823 28.268,77.587 25.361,71.896 19.747 C 67.183 15.098,62.951 11.175,62.491 11.029 C 62.031 10.883,61.192 9.974,60.627 9.009 C 59.978 7.903,59.267 7.208,58.699 7.128 C 58.177 7.054,57.798 6.718,57.795 6.328 C 57.792 5.959,57.657 5.524,57.495 5.362 C 57.333 5.199,57.200 4.806,57.200 4.487 C 57.200 4.168,56.555 3.028,55.766 1.954 L 54.332 0.000 27.166 0.000 L 0.000 0.000 0.004 92.500 M174.963 198.171 C 174.130 198.754,173.882 199.270,171.581 205.200 C 168.538 213.041,161.858 226.888,154.407 240.800 C 139.254 269.090,133.600 282.387,132.209 292.999 C 131.386 299.276,131.380 307.141,132.198 307.454 C 132.526 307.581,132.679 307.873,132.536 308.104 C 132.390 308.339,132.467 308.406,132.711 308.255 C 132.950 308.107,133.399 308.348,133.709 308.791 C 134.018 309.233,134.368 309.498,134.486 309.380 C 134.605 309.262,134.811 309.453,134.946 309.804 C 135.107 310.224,135.033 310.344,134.727 310.155 C 134.414 309.961,134.351 310.094,134.532 310.567 C 134.679 310.951,134.800 311.351,134.800 311.456 C 134.800 311.561,134.980 311.536,135.200 311.400 C 135.420 311.264,135.600 311.463,135.600 311.843 C 135.600 312.223,135.714 312.419,135.853 312.280 C 136.253 311.880,137.600 313.832,137.600 314.812 C 137.600 315.554,137.697 315.617,138.200 315.200 C 138.699 314.785,138.800 314.837,138.800 315.505 C 138.800 316.458,140.519 317.720,142.200 318.000 C 143.215 318.169,143.431 318.416,143.600 319.600 C 143.778 320.844,143.956 321.022,145.200 321.200 C 146.392 321.370,146.620 321.573,146.733 322.563 C 146.894 323.976,148.816 326.000,149.997 326.000 C 150.555 326.000,152.237 327.401,154.800 330.000 C 156.969 332.200,158.937 334.000,159.172 334.000 C 159.408 334.000,159.600 334.264,159.600 334.586 C 159.600 334.908,159.960 335.365,160.400 335.600 C 160.871 335.852,161.200 336.438,161.200 337.025 C 161.200 338.771,167.987 345.200,169.831 345.200 C 171.703 345.200,173.723 346.824,174.000 348.552 C 174.164 349.575,174.410 349.824,175.363 349.933 C 176.820 350.099,178.800 352.030,178.800 353.284 C 178.800 354.519,182.289 358.000,183.528 358.000 C 184.830 358.000,189.898 363.156,190.069 364.655 C 190.180 365.625,190.414 365.831,191.600 366.000 C 192.844 366.178,193.022 366.356,193.200 367.600 C 193.372 368.802,193.569 369.019,194.594 369.136 C 195.361 369.223,196.306 369.832,197.233 370.836 C 198.027 371.696,199.043 372.400,199.490 372.400 C 200.481 372.400,201.078 373.073,201.262 374.400 C 201.361 375.115,201.685 375.439,202.400 375.536 C 203.895 375.738,210.547 382.280,210.800 383.797 C 210.950 384.693,211.261 385.045,212.039 385.197 C 213.650 385.512,217.339 389.026,217.083 390.002 C 216.927 390.599,217.073 390.800,217.660 390.800 C 218.206 390.800,218.688 391.349,219.241 392.600 C 219.788 393.835,220.279 394.400,220.808 394.400 C 221.554 394.400,222.785 396.169,222.813 397.280 C 222.821 397.566,223.201 398.250,223.658 398.800 L 224.490 399.800 312.245 399.908 L 400.000 400.016 400.000 364.208 C 400.000 328.667,399.994 328.400,399.200 328.400 C 398.760 328.400,398.400 328.240,398.400 328.045 C 398.400 327.849,397.788 327.574,397.041 327.434 C 396.035 327.245,395.617 326.922,395.433 326.190 C 395.200 325.261,394.678 325.025,393.170 325.167 C 392.824 325.200,392.334 324.774,392.082 324.221 C 391.783 323.563,391.413 323.297,391.012 323.451 C 390.631 323.597,390.400 323.460,390.400 323.089 C 390.400 322.235,376.698 308.500,375.683 308.336 C 375.217 308.261,369.784 303.205,363.608 297.100 C 357.433 290.995,352.065 286.000,351.680 286.000 C 350.670 286.000,345.288 280.412,345.130 279.200 C 345.035 278.467,344.726 278.168,343.974 278.081 C 343.282 278.000,341.401 276.409,338.181 273.181 C 333.448 268.435,332.400 267.705,332.400 269.153 C 332.400 269.568,332.048 269.999,331.618 270.111 C 331.175 270.227,330.716 270.811,330.559 271.458 C 330.407 272.086,329.786 273.680,329.179 275.000 C 328.571 276.320,327.948 278.009,327.794 278.753 C 327.464 280.343,324.014 288.207,322.510 290.800 C 317.114 300.097,300.456 316.979,285.800 328.004 C 271.121 339.046,263.629 333.358,269.172 315.381 C 277.241 289.214,276.750 272.388,267.361 253.313 C 262.412 243.257,260.965 243.713,255.022 257.200 C 245.648 278.470,228.203 304.899,221.048 308.667 C 215.506 311.587,213.310 309.022,206.776 292.000 C 204.115 285.070,200.304 275.350,198.305 270.400 C 189.433 248.427,187.616 243.211,182.839 226.000 C 180.430 217.321,179.716 214.018,178.771 207.200 C 177.624 198.929,176.771 196.905,174.963 198.171 " stroke="none" fill="#595eec" fill-rule="evenodd"></path><path id="path4" d="M0.060 292.900 L 0.000 400.000 113.900 399.930 C 176.545 399.892,227.009 399.790,226.043 399.704 C 224.295 399.549,222.843 398.460,222.813 397.280 C 222.785 396.169,221.554 394.400,220.808 394.400 C 220.279 394.400,219.788 393.835,219.241 392.600 C 218.688 391.349,218.206 390.800,217.660 390.800 C 217.073 390.800,216.927 390.599,217.083 390.002 C 217.339 389.026,213.650 385.512,212.039 385.197 C 211.261 385.045,210.950 384.693,210.800 383.797 C 210.547 382.280,203.895 375.738,202.400 375.536 C 201.685 375.439,201.361 375.115,201.262 374.400 C 201.078 373.073,200.481 372.400,199.490 372.400 C 199.043 372.400,198.027 371.696,197.233 370.836 C 196.306 369.832,195.361 369.223,194.594 369.136 C 193.569 369.019,193.372 368.802,193.200 367.600 C 193.022 366.356,192.844 366.178,191.600 366.000 C 190.414 365.831,190.180 365.625,190.069 364.655 C 189.895 363.131,184.829 358.000,183.499 358.000 C 182.268 358.000,178.800 354.498,178.800 353.255 C 178.800 352.025,176.806 350.097,175.363 349.933 C 174.410 349.824,174.164 349.575,174.000 348.552 C 173.723 346.824,171.703 345.200,169.831 345.200 C 167.987 345.200,161.200 338.771,161.200 337.025 C 161.200 336.438,160.871 335.852,160.400 335.600 C 159.960 335.365,159.600 334.908,159.600 334.586 C 159.600 334.264,159.408 334.000,159.172 334.000 C 158.937 334.000,156.969 332.200,154.800 330.000 C 152.237 327.401,150.555 326.000,149.997 326.000 C 148.816 326.000,146.894 323.976,146.733 322.563 C 146.620 321.573,146.392 321.370,145.200 321.200 C 143.956 321.022,143.778 320.844,143.600 319.600 C 143.431 318.416,143.215 318.169,142.200 318.000 C 140.519 317.720,138.800 316.458,138.800 315.505 C 138.800 314.837,138.699 314.785,138.200 315.200 C 137.697 315.617,137.600 315.554,137.600 314.812 C 137.600 313.832,136.253 311.880,135.853 312.280 C 135.714 312.419,135.600 312.223,135.600 311.843 C 135.600 311.463,135.439 311.252,135.242 311.374 C 135.045 311.496,134.775 311.312,134.642 310.965 C 134.304 310.085,134.338 309.915,134.795 310.197 C 135.024 310.339,135.088 310.173,134.946 309.804 C 134.811 309.453,134.605 309.262,134.486 309.380 C 134.368 309.498,134.018 309.233,133.709 308.791 C 133.399 308.348,132.950 308.107,132.711 308.255 C 132.451 308.415,132.391 308.338,132.562 308.062 C 132.719 307.808,132.646 307.600,132.400 307.600 C 132.154 307.600,132.081 307.392,132.238 307.138 C 132.417 306.849,132.348 306.785,132.053 306.967 C 131.703 307.183,131.650 309.472,131.846 315.929 C 132.587 340.382,124.104 338.514,98.576 308.600 C 90.890 299.594,89.465 297.650,85.530 290.800 C 79.393 280.117,76.783 268.451,78.563 259.663 C 78.930 257.853,79.121 256.195,78.987 255.980 C 78.600 255.354,77.911 256.017,78.120 256.815 C 78.258 257.343,78.141 257.476,77.689 257.302 C 77.299 257.152,77.170 257.227,77.341 257.504 C 77.491 257.747,77.443 258.050,77.234 258.179 C 77.026 258.308,76.725 258.202,76.566 257.945 C 76.373 257.633,76.451 257.584,76.800 257.800 C 77.147 258.014,77.227 257.967,77.038 257.661 C 76.826 257.319,76.536 257.313,75.927 257.639 C 75.330 257.959,75.178 257.959,75.375 257.640 C 75.525 257.398,75.412 257.197,75.124 257.194 C 74.743 257.189,74.764 257.082,75.200 256.800 C 75.685 256.486,75.628 256.411,74.900 256.406 C 74.405 256.403,74.000 256.226,74.000 256.013 C 74.000 255.799,74.315 255.738,74.700 255.877 C 75.282 256.086,75.256 255.965,74.546 255.164 C 74.076 254.634,73.569 253.795,73.419 253.300 C 73.259 252.771,72.827 252.400,72.373 252.400 C 71.948 252.400,71.598 252.175,71.596 251.900 C 71.594 251.625,70.876 250.770,70.000 250.000 C 69.122 249.228,68.406 248.232,68.404 247.778 C 68.399 246.747,66.025 244.401,64.981 244.396 C 64.551 244.394,63.570 243.676,62.800 242.800 C 61.936 241.817,61.048 241.206,60.481 241.204 C 59.191 241.198,55.701 237.635,55.531 236.150 C 55.420 235.175,55.188 234.970,54.000 234.800 C 52.812 234.630,52.580 234.425,52.469 233.450 C 52.305 232.018,48.808 228.400,47.588 228.400 C 46.537 228.400,44.400 226.329,44.400 225.309 C 44.400 223.960,41.952 222.000,40.267 222.000 C 38.461 222.000,33.203 217.177,33.196 215.514 C 33.194 214.953,32.578 214.060,31.600 213.200 C 30.722 212.428,30.006 211.432,30.004 210.978 C 29.999 209.990,27.641 207.600,26.671 207.600 C 26.291 207.600,22.656 204.270,18.595 200.200 C 14.533 196.130,11.028 192.800,10.805 192.800 C 10.582 192.800,10.400 192.378,10.400 191.863 C 10.400 190.939,8.511 190.000,6.654 190.000 C 6.294 190.000,5.676 189.685,5.280 189.300 C 4.885 188.915,4.030 188.562,3.380 188.515 C 1.059 188.347,0.458 188.033,0.286 186.899 C 0.195 186.295,0.093 233.995,0.060 292.900 " stroke="none" fill="#9c39f8" fill-rule="evenodd"></path></g></svg>