<?xml version="1.0" standalone="yes"?>
<svg width="200" height="200">
<path style="fill:#3873ef; stroke:none;" d="M0 0C0.000789196 7.15012 0.225934 11.9635 8 14C6.54337 20.4785 14.1088 26.5219 20 28L31.6211 39.5548L56.1427 61.9961L65 73C69.9242 70.8611 72.7763 67.2035 74 62L50 43L51 40C41.2685 31.3006 30.802 22.8881 21.2469 13.7801C13.7245 6.60965 11.5208 0.0966644 0 0z"/>
<path style="fill:#2d86f0; stroke:none;" d="M7 0L7 1C13.3822 3.48135 15.6704 9.22784 20.4144 13.7801C29.245 22.2539 47.4475 30.1219 50 43L52 45L76 63L91 46L74 33L61.0926 18.946L41.7106 0.588745L7 0z"/>
<path style="fill:#1ec0f5; stroke:none;" d="M43 0C49.1416 12.5955 69.9521 19.8159 74 33C78.5445 35.6264 84.8812 44.2002 90.3002 44.2083C96.5913 44.2178 100.015 32.9044 106.91 36.1404C119.099 41.8606 126.128 61.6858 140 64L146 72L144 74C153.685 80.8766 163.963 88.5165 171.946 97.3287C179.978 106.195 188.549 117.234 200 122C200 110.641 203.906 90.7017 199.397 80.304C196.033 72.549 181.459 61.4878 174 58L174 57L177 56L177 55L172 54C171.164 50.0976 166.982 50.9823 164.167 48.3889C158.561 43.2261 145.242 33.3883 144 26L125 10L125 9L127 9C106.619 -7.70863 68.4859 0 43 0z"/>
<path style="fill:#19daf8; stroke:none;" d="M116 0L127 8L127 9L125 9L125 10C133.577 13.4321 133.519 24.5178 144 26C145.953 39.4147 165.836 44.3893 172 54L177 55L177 56L174 57L174 58L200 79L200 0L116 0z"/>
<path style="fill:#4765f0; stroke:none;" d="M0 10C0 18.1851 -2.25291 30.3469 1.14815 37.9105C4.26811 44.849 12.5674 49.0056 17.6613 54.3032C30.0794 67.2182 43.5023 83.5496 59 93L69 71L65 73C64.28 66.5925 59.0731 64.0092 54.6682 59.8465C46.662 52.2804 39.2365 45.1291 30.7901 38.1505C26.8002 34.8539 21.5593 33.1868 20 28C14.5386 25.8259 7.46377 20.2687 8 14L0 10z"/>
<path style="fill:#ffffff; stroke:none;" d="M65 167C65 160.533 63.3019 153.33 64.3264 147C66.3258 134.646 74.3974 123.03 79.8804 112C81.1902 109.365 84.8288 94.6709 88.74 96.2068C92.3972 97.643 91.953 107.734 92.7485 111C96.4467 126.183 103.905 139.997 108 155C114.595 149.631 120.159 140.834 123.396 133C124.747 129.729 126.244 122.442 130.09 121.207C134.3 119.855 137 128.212 137.985 131C142.423 143.561 135.564 153.654 135 166C139.847 164.848 143.268 161.782 146.999 158.572C158.832 148.39 165.183 133.163 158.64 118C155.499 110.719 149.448 105.188 146.04 98C140.674 86.6803 135.845 73.1486 124 67L120.841 89L115 109C110.323 93.1773 107.201 71.6136 107.004 55C106.96 51.2755 109.093 37.2205 105.397 35.1752C102.442 33.5407 97.8984 38.466 96 40.1705C88.3854 47.0076 81.3378 54.5655 75 62.5903C65.5535 74.5512 60.7661 88.2913 54.564 102C50.4366 111.123 42.935 119.107 40.6806 129C37.3676 143.538 52.4049 161.667 65 167z"/>
<path style="fill:#24a1f2; stroke:none;" d="M107 36L112.335 89L116 106L124 67C132.931 73.8092 140.858 84.0931 144 95L145 95L147 93C149.596 102.171 167.708 119.862 177 123L176 126L200 145C200 138.801 201.872 129.032 199.397 123.301C197.046 117.86 187.377 112.388 182.87 108.389C170.036 97.002 159.79 81.82 144 74L146 72L140 64L107 36z"/>
<path style="fill:#6c52f3; stroke:none;" d="M0 37C0 46.571 -2.69705 60.9691 0.839506 69.9105C8.86302 90.1961 33.6604 99.51 44 118L46 118C49.81 112.224 58.2478 101.346 57.7739 94.0934C57.3197 87.1412 42.3679 77.6241 37.1836 73.8765C23.5502 64.0214 12.2574 48.7834 0 37z"/>
<path style="fill:#78b2d9; stroke:none;" d="M108 67L108 71L109 71L108 67z"/>
<path style="fill:#8349f6; stroke:none;" d="M0 70L0.603395 99.8156L29 128C34.2761 128.451 36.5072 132.756 39 137L40 137C40.1267 130.893 45.094 123.566 44.0849 118C42.8676 111.286 34.8653 106.481 30.1998 102.275C19.3715 92.5113 11.0289 79.1886 0 70z"/>
<path style="fill:#679fec; stroke:none;" d="M121 71L121 84L122 84L121 71z"/>
<path style="fill:#afc4fd; stroke:none;" d="M109.333 76.6667L109.667 77.3333L109.333 76.6667z"/>
<path style="fill:#91bafb; stroke:none;" d="M111.333 85.6667L111.667 86.3333L111.333 85.6667z"/>
<path style="fill:#86a2e3; stroke:none;" d="M112 89L112 92L113 92L112 89z"/>
<path style="fill:#2a8df0; stroke:none;" d="M145 93C145.655 103.182 153.998 109.301 158.176 118C161.381 124.673 160.622 130.455 166.579 135.741C175.126 143.323 192.732 153.95 196 165L199 167L200 167C200 160.9 201.653 152.005 199.411 146.286C196.621 139.167 182.95 128.51 176 126L177 123L145 93z"/>
<path style="fill:#4e60f0; stroke:none;" d="M72 129L81 134L81 140C96.0701 152.511 110.312 166.716 124.745 180.043C131.786 186.545 137.687 195.449 147.004 199.101C158.284 203.522 176.908 200 189 200L172.441 183.486L147 159L135 166C135.357 153.699 141.915 142.824 137.945 130C137.055 127.123 134.318 119.056 130.09 120.346C126.213 121.528 124.744 128.737 123.396 132C119.907 140.444 113.944 148.131 108 155L92.7485 110L88.74 95.3457L83.5656 102L72 129z"/>
<path style="fill:#a93dfb; stroke:none;" d="M0 101L0 129C0 132.473 -1.09325 137.486 3 138C8.92658 149.79 20.9302 156.764 30.4059 164.42C38.5797 171.023 45.461 179.039 53.7184 185.615C58.0647 189.076 64.1986 198.002 69.1435 199.566C81.1845 203.376 99.3541 200 112 200L87 172L79 168C78.406 163.028 69.3703 156.052 65 154L65 167C56.2805 161.546 48.19 153.118 43.3272 144.001C40.0385 137.835 37.2086 128.182 29 128C24.5381 119.372 8.86272 105.228 0 101z"/>
<path style="fill:#7c8fca; stroke:none;" d="M114 104L114 109L115 109L114 104z"/>
<path style="fill:#7d4bf6; stroke:none;" d="M71 128C69.2184 133.345 60.3254 146.988 65 154C68.4265 159.14 79.9647 164.141 79 168L87 172L98.8735 185.62L113.375 199.4L147 200L102.171 159.576L81 140L81 134L74 128L71 128z"/>
<path style="fill:#3c6def; stroke:none;" d="M161 131C160.888 144.395 150.22 149.525 147 161C152.989 162.222 155.339 167.511 159.526 171.559C170.841 182.495 183.697 200 200 200C200 192.692 203.787 167.738 196 165C194.876 158.167 188.945 155.852 184.29 151.61C176.665 144.662 170.346 135.943 161 131z"/>
<path style="fill:#89a4d0; stroke:none;" d="M139 135L139 145L140 145L139 135z"/>
<path style="fill:#ba38fd; stroke:none;" d="M0 138L0 200L68 200L68 199L3 138L0 138z"/>
<path style="fill:#b9b7c5; stroke:none;" d="M64 145L64 155L65 155L64 145z"/>
<path style="fill:#8ba5eb; stroke:none;" d="M135.333 159.667L135.667 160.333L135.333 159.667z"/>
</svg>
