<?xml version="1.0" standalone="no"?>
<!DOCTYPE svg PUBLIC "-//W3C//DTD SVG 20010904//EN"
 "http://www.w3.org/TR/2001/REC-SVG-20010904/DTD/svg10.dtd">
<svg version="1.0" xmlns="http://www.w3.org/2000/svg"
 width="200.000000pt" height="200.000000pt" viewBox="0 0 200.000000 200.000000"
 preserveAspectRatio="xMidYMid meet">

<g transform="translate(0.000000,200.000000) scale(0.100000,-0.100000)"
fill="#000000" stroke="none">
<path d="M0 1000 l0 -1000 1000 0 1000 0 0 223 0 222 -95 91 c-52 50 -95 89
-95 87 0 -2 -6 2 -14 9 -8 7 -12 16 -9 21 2 4 0 7 -6 7 -5 0 -52 42 -105 93
-53 51 -96 93 -96 92 0 0 7 -18 15 -40 8 -23 14 -77 14 -125 1 -76 -2 -90 -29
-136 -33 -58 -185 -204 -212 -204 -24 0 -23 38 2 114 24 72 26 183 4 246 -18
51 -52 110 -64 110 -12 0 -32 -37 -65 -115 -30 -73 -109 -197 -144 -229 -20
-18 -21 -18 -27 0 -3 11 -31 84 -62 164 -62 165 -102 300 -102 348 0 40 -15
72 -34 72 -15 0 -26 -21 -26 -48 0 -9 -44 -107 -97 -217 l-98 -199 -3 -128
c-3 -98 -7 -128 -17 -128 -23 0 -183 179 -210 235 -43 91 -32 159 45 281 44
69 105 195 141 287 42 110 109 212 226 345 26 29 42 52 36 50 -5 -2 -28 15
-51 37 -22 22 -90 87 -151 145 -62 58 -155 147 -209 197 l-97 93 -182 0 -183
0 0 -1000z"/>
<path d="M1082 1350 c0 -14 2 -19 5 -12 2 6 2 18 0 25 -3 6 -5 1 -5 -13z"/>
<path d="M1090 1294 c0 -11 9 -60 19 -109 11 -50 22 -115 26 -145 3 -30 9 -68
12 -83 l5 -29 14 27 c16 32 44 161 44 207 0 27 -11 44 -60 92 -46 46 -60 55
-60 40z"/>
<path d="M1460 1021 c0 -6 4 -13 10 -16 6 -3 7 1 4 9 -7 18 -14 21 -14 7z"/>
<path d="M1510 941 c0 -6 4 -13 10 -16 6 -3 7 1 4 9 -7 18 -14 21 -14 7z"/>
<path d="M1540 901 c0 -6 4 -13 10 -16 6 -3 7 1 4 9 -7 18 -14 21 -14 7z"/>
</g>
</svg>
