<!DOCTYPE svg PUBLIC "-//W3C//DTD SVG 20010904//EN" "http://www.w3.org/TR/2001/REC-SVG-20010904/DTD/svg10.dtd">
<svg version="1.0" xmlns="http://www.w3.org/2000/svg" width="540px" height="583px" viewBox="0 0 5400 5830" preserveAspectRatio="xMidYMid meet">
<g id="layer101" fill="#ed6412" stroke="none">
 <path d="M3653 4763 c3 -17 33 -107 66 -200 102 -283 123 -402 110 -600 -10 -147 -51 -271 -140 -425 -41 -70 -127 -171 -162 -190 -32 -17 -59 24 -103 154 -113 340 -259 601 -456 816 -22 24 -41 42 -43 40 -2 -2 -15 -48 -29 -103 -43 -170 -73 -252 -185 -500 -165 -364 -200 -488 -256 -902 -19 -145 -39 -280 -43 -300 l-8 -38 -37 56 c-43 67 -75 142 -197 469 -100 264 -134 339 -213 464 -28 45 -97 178 -155 296 -201 415 -220 546 -117 803 24 61 43 112 41 114 -2 2 -59 -38 -127 -89 -222 -166 -446 -415 -537 -598 -34 -69 -37 -80 -36 -160 2 -171 90 -338 308 -585 48 -55 101 -125 116 -156 16 -31 51 -130 79 -221 76 -250 127 -381 221 -568 231 -461 578 -872 968 -1149 101 -71 192 -127 192 -117 0 3 -18 62 -40 131 -55 173 -71 272 -71 445 0 161 22 312 66 465 72 248 86 299 109 415 54 270 65 479 40 795 l-5 70 51 -54 c81 -85 162 -267 225 -503 46 -176 74 -363 88 -603 l12 -198 76 74 c132 130 235 270 314 429 58 115 69 143 126 308 63 182 67 191 136 249 157 133 190 179 268 382 124 321 98 518 -102 786 -109 145 -367 394 -522 504 l-34 25 6 -31z"/>
 </g>

</svg>