<?xml version="1.0" standalone="no"?>
<!DOCTYPE svg PUBLIC "-//W3C//DTD SVG 20010904//EN"
 "http://www.w3.org/TR/2001/REC-SVG-20010904/DTD/svg10.dtd">
<svg version="1.0" xmlns="http://www.w3.org/2000/svg"
 width="17px" height="17px" viewBox="0 0 192.000000 192.000000"
 preserveAspectRatio="xMidYMid meet">
<g transform="translate(0.000000,192.000000) scale(0.100000,-0.100000)"
fill="#007bff" stroke="none">
<path d="M857 1730 c-58 -22 -107 -58 -143 -105 -26 -35 -27 -35 -105 -35 -93
0 -152 -23 -209 -80 -57 -57 -80 -117 -80 -206 l0 -77 -40 -34 c-159 -136
-158 -347 0 -474 l40 -32 0 -79 c0 -91 23 -151 80 -208 57 -57 117 -80 208
-80 l79 0 32 -40 c127 -158 345 -158 472 0 l32 40 79 0 c91 0 151 23 208 80
57 57 80 116 80 209 0 78 0 79 35 105 48 37 83 85 106 148 40 111 12 217 -83
310 l-58 58 0 75 c0 88 -23 148 -80 205 -57 57 -116 80 -209 80 -78 0 -79 0
-105 35 -81 106 -221 150 -339 105z m466 -569 c26 -27 47 -55 47 -62 0 -16
-480 -499 -495 -499 -6 0 -78 68 -160 150 l-149 150 59 60 c33 33 61 60 64 60
2 0 45 -40 95 -90 l92 -89 184 184 c102 102 192 185 200 185 8 0 36 -22 63
-49z"/>
</g>
</svg>
