<?xml version="1.0" standalone="no"?>
<!DOCTYPE svg PUBLIC "-//W3C//DTD SVG 20010904//EN"
 "http://www.w3.org/TR/2001/REC-SVG-20010904/DTD/svg10.dtd">
<svg version="1.0" xmlns="http://www.w3.org/2000/svg"
 width="171px" height="23px" viewBox="0 0 794.000000 108.000000"
 preserveAspectRatio="xMidYMid meet">
<g transform="translate(0.000000,108.000000) scale(0.100000,-0.100000)"
fill="#ffffff" stroke="none">
<path d="M4432 998 l3 -83 60 0 60 0 3 83 3 82 -66 0 -66 0 3 -82z"/>
<path d="M474 961 c-115 -98 -222 -238 -264 -346 -30 -77 -72 -163 -122 -248
-70 -117 -54 -189 71 -311 33 -33 64 -56 68 -52 5 4 8 47 8 94 l0 87 72 150
c39 83 75 164 81 180 16 55 35 36 53 -55 10 -47 32 -123 49 -170 18 -47 40
-107 50 -135 10 -27 24 -51 32 -53 17 -3 89 104 127 190 17 38 35 68 41 68 6
0 22 -24 35 -52 30 -64 33 -151 9 -226 -33 -101 -4 -101 97 -1 70 70 89 108
89 181 -1 67 -16 108 -66 183 -22 33 -59 98 -82 145 -50 104 -114 179 -137
160 -9 -8 -15 -30 -15 -59 0 -85 -32 -231 -51 -231 -5 0 -9 13 -9 29 0 16 -10
76 -21 133 -12 57 -24 165 -28 242 -4 88 -10 141 -17 143 -6 2 -38 -19 -70
-46z"/>
<path d="M7040 803 c0 -32 -3 -101 -6 -153 -7 -94 -6 -96 21 -128 21 -25 34
-33 51 -29 22 4 23 1 26 -57 3 -60 3 -61 33 -61 l30 0 5 70 c3 41 8 65 13 58
5 -8 29 -13 56 -13 40 0 54 6 89 36 39 33 42 39 42 86 0 47 -4 54 -40 90 -34
32 -48 38 -84 38 -82 0 -138 -60 -141 -152 -1 -27 -5 -48 -9 -49 -27 -3 -31
25 -35 244 -1 75 -2 77 -26 77 -24 0 -25 -3 -25 -57z m271 -126 c43 -33 46
-80 6 -117 -67 -63 -158 40 -95 107 23 25 64 30 89 10z"/>
<path d="M7430 675 l0 -185 25 0 c25 0 25 1 25 78 0 83 16 122 49 122 32 0 43
-26 44 -112 l2 -83 30 0 30 0 3 74 c2 42 -2 87 -9 103 -18 44 -63 71 -109 66
l-40 -4 0 63 c0 61 -1 63 -25 63 l-25 0 0 -185z"/>
<path d="M1841 738 c-74 -28 -142 -97 -170 -172 -20 -54 -21 -72 -19 -304 l3
-247 60 0 60 0 5 250 c6 282 9 295 80 340 52 33 110 33 165 0 74 -43 79 -64
85 -345 l5 -245 60 0 60 0 5 255 c6 286 9 299 80 339 71 40 156 21 206 -45
l29 -37 5 -256 5 -256 39 -3 c22 -2 50 -1 63 3 l24 6 -3 262 c-3 250 -4 264
-26 304 -54 102 -141 162 -246 170 -73 6 -154 -21 -203 -67 -18 -16 -36 -30
-41 -30 -6 0 -24 13 -41 29 -41 39 -129 71 -189 70 -26 0 -71 -9 -101 -21z"/>
<path d="M3120 749 c-136 -37 -239 -142 -276 -283 -44 -165 35 -344 188 -426
57 -31 72 -35 165 -38 96 -4 106 -3 165 25 231 109 297 393 137 594 -84 106
-251 162 -379 128z m173 -133 c101 -37 161 -126 161 -241 0 -56 -5 -80 -27
-122 -100 -193 -379 -170 -452 37 -70 200 121 396 318 326z"/>
<path d="M4943 746 c-104 -34 -194 -114 -241 -214 -24 -50 -27 -70 -27 -157 0
-93 2 -105 33 -167 38 -78 105 -143 187 -182 48 -22 69 -26 150 -26 79 0 104
4 152 25 31 14 65 33 75 42 17 15 18 14 18 -13 0 -47 11 -55 71 -52 l54 3 0
235 0 235 -29 63 c-35 75 -107 145 -190 186 -69 34 -186 44 -253 22z m181
-128 c55 -16 138 -99 154 -154 31 -105 9 -198 -64 -271 -69 -70 -149 -90 -248
-62 -48 13 -123 82 -147 134 -26 57 -25 165 2 222 24 50 99 119 143 132 45 13
113 13 160 -1z"/>
<path d="M5840 749 c-97 -27 -189 -97 -234 -179 -70 -128 -72 -251 -7 -379 30
-59 105 -131 166 -161 44 -22 63 -25 165 -25 101 0 121 3 163 24 75 37 141
103 178 178 32 64 34 74 33 168 0 87 -4 107 -28 158 -79 167 -268 261 -436
216z m193 -144 c90 -43 137 -121 137 -230 0 -146 -89 -242 -232 -253 -105 -8
-205 61 -243 168 -59 168 68 346 240 337 33 -2 77 -11 98 -22z"/>
<path d="M3616 731 c-3 -5 1 -21 8 -37 14 -28 113 -256 237 -544 l58 -135 57
0 58 0 53 125 c29 69 67 157 84 195 17 39 37 84 44 100 81 183 124 289 119
296 -8 14 -120 11 -131 -3 -6 -7 -31 -65 -58 -128 -26 -63 -57 -137 -69 -165
-12 -27 -38 -87 -57 -132 -18 -46 -38 -81 -44 -80 -5 2 -22 33 -37 68 -14 35
-33 80 -42 99 -8 19 -42 100 -76 180 -34 79 -66 150 -72 157 -12 15 -124 18
-132 4z"/>
<path d="M4435 728 c-3 -7 -4 -171 -3 -363 l3 -350 60 0 60 0 0 360 0 360 -58
3 c-40 2 -59 -1 -62 -10z"/>
<path d="M6781 702 c-22 -20 -43 -50 -46 -65 -17 -65 57 -147 133 -147 24 0
52 5 63 10 13 7 19 7 19 0 0 -5 11 -10 25 -10 25 0 25 1 25 85 l0 85 -40 40
c-36 36 -45 40 -90 40 -43 0 -54 -4 -89 -38z m129 -25 c56 -45 29 -136 -40
-136 -42 -1 -72 30 -72 74 0 29 6 43 24 56 27 21 66 24 88 6z"/>
<path d="M7712 704 c-39 -33 -42 -39 -42 -87 1 -56 9 -71 57 -105 34 -24 116
-31 129 -11 4 8 9 8 17 0 6 -6 24 -11 39 -11 l28 0 0 80 c0 44 -3 80 -8 80 -4
0 -12 10 -17 22 -16 36 -73 68 -120 68 -33 0 -50 -7 -83 -36z m135 -36 c46
-43 14 -128 -47 -128 -33 0 -80 44 -80 75 0 30 47 75 78 75 14 0 36 -10 49
-22z"/>
</g>
</svg>
