<?xml version="1.0" standalone="no"?>
<!DOCTYPE svg PUBLIC "-//W3C//DTD SVG 20010904//EN"
 "http://www.w3.org/TR/2001/REC-SVG-20010904/DTD/svg10.dtd">
<svg version="1.0" xmlns="http://www.w3.org/2000/svg"
 width="171px" height="23px" viewBox="0 0 794.000000 108.000000"
 preserveAspectRatio="xMidYMid meet">
<g transform="translate(0.000000,108.000000) scale(0.100000,-0.100000)"
fill="#ffffff" stroke="none">
<path d="M4432 998 l3 -83 60 0 60 0 3 83 3 82 -66 0 -66 0 3 -82z"/>
<path d="M474 961 c-119 -101 -223 -238 -269 -356 -33 -85 -65 -148 -117 -238
-70 -117 -54 -189 71 -311 33 -33 64 -56 68 -52 5 4 8 47 8 94 l0 87 72 150
c39 83 75 164 81 180 16 55 35 36 53 -55 10 -47 32 -123 49 -170 18 -47 40
-107 50 -135 10 -27 24 -51 32 -53 17 -3 89 104 127 190 17 38 35 68 41 68 6
0 22 -24 35 -52 30 -64 33 -151 9 -226 -33 -101 -4 -101 97 -1 70 70 89 108
89 181 -1 67 -16 108 -66 183 -22 33 -59 98 -82 145 -50 104 -114 179 -137
160 -9 -8 -15 -30 -15 -59 0 -85 -32 -231 -51 -231 -5 0 -9 13 -9 29 0 16 -10
76 -21 133 -12 57 -24 165 -28 242 -4 88 -10 141 -17 143 -6 2 -38 -19 -70
-46z"/>
<path d="M6744 847 c-2 -7 -3 -89 -2 -182 l3 -170 86 -3 87 -3 31 38 c36 44
39 79 12 124 -18 29 -18 35 -5 53 24 35 17 81 -17 121 -31 35 -32 35 -110 35
-56 0 -81 -4 -85 -13z m154 -49 c7 -7 12 -26 12 -43 0 -42 -16 -55 -67 -55
l-43 0 0 55 0 55 43 0 c24 0 48 -5 55 -12z m9 -174 c15 -24 15 -29 2 -53 -12
-21 -23 -27 -62 -29 l-47 -3 0 55 0 56 45 0 c37 0 47 -4 62 -26z"/>
<path d="M7027 853 c-2 -4 -6 -87 -8 -183 l-4 -175 114 -3 c116 -3 136 3 124
35 -4 9 -28 13 -89 13 l-84 0 0 55 0 54 73 3 c64 3 72 5 72 23 0 18 -8 20 -72
23 l-73 3 0 54 0 54 83 3 c74 3 82 5 82 23 0 19 -8 20 -107 23 -58 1 -108 -1
-111 -5z"/>
<path d="M7598 845 c-14 -8 -36 -30 -47 -49 -19 -30 -21 -49 -21 -170 l0 -136
25 0 c27 0 28 2 25 73 l-1 47 80 0 80 0 3 -57 c3 -55 4 -58 31 -61 l27 -3 0
131 c0 146 -8 172 -63 214 -39 30 -96 34 -139 11z m111 -54 c19 -15 25 -30 29
-75 l4 -56 -81 0 -81 0 0 29 c0 63 40 121 85 121 11 0 31 -9 44 -19z"/>
<path d="M7280 815 c0 -23 4 -25 45 -25 l44 0 3 -147 3 -148 30 0 30 0 -2 147
-2 147 47 3 c39 3 47 6 47 23 0 19 -8 20 -122 23 l-123 3 0 -26z"/>
<path d="M1841 738 c-74 -28 -142 -97 -170 -172 -20 -54 -21 -72 -19 -304 l3
-247 60 0 60 0 5 250 c6 282 9 295 80 340 52 33 110 33 165 0 74 -43 79 -64
85 -345 l5 -245 60 0 60 0 5 255 c6 286 9 299 80 339 71 40 156 21 206 -45
l29 -37 5 -256 5 -256 39 -3 c22 -2 50 -1 63 3 l24 6 -3 262 c-3 250 -4 264
-26 304 -54 102 -141 162 -246 170 -73 6 -154 -21 -203 -67 -18 -16 -36 -30
-41 -30 -6 0 -24 13 -41 29 -41 39 -129 71 -189 70 -26 0 -71 -9 -101 -21z"/>
<path d="M3120 749 c-136 -37 -239 -142 -276 -283 -44 -165 35 -344 188 -426
57 -31 72 -35 165 -38 96 -4 106 -3 165 25 231 109 297 393 137 594 -84 106
-251 162 -379 128z m173 -133 c101 -37 161 -126 161 -241 0 -56 -5 -80 -27
-122 -100 -193 -379 -170 -452 37 -70 200 121 396 318 326z"/>
<path d="M4943 746 c-104 -34 -194 -114 -241 -214 -24 -50 -27 -70 -27 -157 0
-93 2 -105 33 -167 38 -78 105 -143 187 -182 48 -22 69 -26 150 -26 79 0 104
4 152 25 31 14 65 33 75 42 17 15 18 14 18 -13 0 -47 11 -55 71 -52 l54 3 0
235 0 235 -29 63 c-35 75 -107 145 -190 186 -69 34 -186 44 -253 22z m181
-128 c55 -16 138 -99 154 -154 31 -105 9 -198 -64 -271 -69 -70 -149 -90 -248
-62 -48 13 -123 82 -147 134 -26 57 -25 165 2 222 24 50 99 119 143 132 45 13
113 13 160 -1z"/>
<path d="M5840 749 c-97 -27 -189 -97 -234 -179 -70 -128 -72 -251 -7 -379 30
-59 105 -131 166 -161 44 -22 63 -25 165 -25 101 0 121 3 163 24 75 37 141
103 178 178 32 64 34 74 33 168 0 87 -4 107 -28 158 -78 167 -269 261 -436
216z m193 -144 c90 -43 137 -121 137 -230 0 -146 -89 -242 -232 -253 -105 -8
-205 61 -243 168 -59 168 68 346 240 337 33 -2 77 -11 98 -22z"/>
<path d="M3616 731 c-3 -5 1 -21 8 -37 14 -28 113 -256 237 -544 l58 -135 57
0 58 0 67 155 c36 85 105 245 152 354 48 109 84 203 81 207 -8 14 -120 11
-131 -3 -6 -7 -31 -65 -58 -128 -26 -63 -57 -137 -69 -165 -12 -27 -38 -87
-57 -132 -18 -46 -38 -81 -44 -80 -5 2 -22 33 -37 68 -14 35 -33 80 -42 99 -8
19 -42 100 -76 180 -34 79 -66 150 -72 157 -12 15 -124 18 -132 4z"/>
<path d="M4435 728 c-3 -7 -4 -171 -3 -363 l3 -350 60 0 60 0 0 360 0 360 -58
3 c-40 2 -59 -1 -62 -10z"/>
</g>
</svg>
